<svg xmlns="http://www.w3.org/2000/svg">
  <g id='happy'>
    <!-- width="30" height="30" viewBox="0 0 30 30" -->
    <path fill-rule="evenodd" clip-rule="evenodd" d="M0 15C0 6.71573 6.71573 0 15 0C23.2843 0 30 6.71573 30 15C30 23.2843 23.2843 30 15 30C6.71573 30 0 23.2843 0 15ZM15 2C7.8203 2 2 7.8203 2 15C2 22.1797 7.8203 28 15 28C22.1797 28 28 22.1797 28 15C28 7.8203 22.1797 2 15 2ZM10 12H8V10H10V12ZM22 12H20V10H22V12ZM9.2 16.6L9.8 17.4C12.4 20.8667 17.6 20.8667 20.2 17.4L20.8 16.6L22.4 17.8L21.8 18.6C18.4 23.1333 11.6 23.1333 8.2 18.6L7.6 17.8L9.2 16.6Z" fill="currentColor"/>
  </g>
  <g id='like'>
    <!-- width="30" height="26" viewBox="0 0 30 26" -->
    <path fill-rule="evenodd" clip-rule="evenodd" d="M8.07107 2C4.71811 2 2 4.71811 2 8.07107C2 9.68122 2.63963 11.2254 3.77817 12.364L15 23.5858L26.2218 12.364C27.3604 11.2254 28 9.68121 28 8.07107C28 4.71811 25.2819 2 21.9289 2C20.3188 2 18.7746 2.63963 17.636 3.77817L15.7071 5.70711C15.3166 6.09763 14.6834 6.09763 14.2929 5.70711L12.364 3.77818C11.2254 2.63963 9.68121 2 8.07107 2ZM0 8.07107C0 3.61354 3.61354 0 8.07107 0C10.2116 0 12.2646 0.850343 13.7782 2.36396L15 3.58579L16.2218 2.36396C17.7354 0.850341 19.7884 0 21.9289 0C26.3865 0 30 3.61354 30 8.07107C30 10.2116 29.1497 12.2646 27.636 13.7782L15.7071 25.7071C15.3166 26.0976 14.6834 26.0976 14.2929 25.7071L2.36396 13.7782C0.850339 12.2646 0 10.2116 0 8.07107Z" fill="currentColor"/>
  </g>
  <g id='sad'>
    <!-- width="30" height="30" viewBox="0 0 30 30" -->
    <path fill-rule="evenodd" clip-rule="evenodd" d="M0 15C0 6.71573 6.71573 0 15 0C23.2843 0 30 6.71573 30 15C30 23.2843 23.2843 30 15 30C6.71573 30 0 23.2843 0 15ZM15 2C7.8203 2 2 7.8203 2 15C2 22.1797 7.8203 28 15 28C22.1797 28 28 22.1797 28 15C28 7.8203 22.1797 2 15 2ZM10 12H8V10H10V12ZM22 12H20V10H22V12ZM7.6 20.2L8.2 19.4C11.6 14.8667 18.4 14.8667 21.8 19.4L22.4 20.2L20.8 21.4L20.2 20.6C17.6 17.1333 12.4 17.1333 9.8 20.6L9.2 21.4L7.6 20.2Z" fill="currentColor"/>
  </g>
  <g id='search'>
  <!-- width="20" height="20" viewBox="0 0 20 20" -->
    <path d="M19.3613 18.2168L14.6012 13.2662C15.8251 11.8113 16.4957 9.98069 16.4957 8.07499C16.4957 3.62251 12.8732 0 8.4207 0C3.96821 0 0.345703 3.62251 0.345703 8.07499C0.345703 12.5275 3.96821 16.15 8.4207 16.15C10.0922 16.15 11.6851 15.6458 13.047 14.6888L17.8432 19.677C18.0436 19.8852 18.3133 20 18.6022 20C18.8757 20 19.1352 19.8957 19.3321 19.7061C19.7506 19.3034 19.764 18.6357 19.3613 18.2168ZM8.4207 2.10652C11.7118 2.10652 14.3892 4.78391 14.3892 8.07499C14.3892 11.3661 11.7118 14.0435 8.4207 14.0435C5.12961 14.0435 2.45222 11.3661 2.45222 8.07499C2.45222 4.78391 5.12961 2.10652 8.4207 2.10652Z" fill="currentColor"/>
  </g>
  <g id='close'>
  <!-- width="18" height="18" viewBox="0 0 18 18"  -->
    <path fill-rule="evenodd" clip-rule="evenodd" d="M8.05691 8.99997L0.52832 1.47137L1.47113 0.528564L8.99972 8.05716L16.5283 0.528564L17.4711 1.47137L9.94253 8.99997L17.4711 16.5286L16.5283 17.4714L8.99972 9.94278L1.47113 17.4714L0.52832 16.5286L8.05691 8.99997Z" fill="currentColor"/>
  </g>
  <g id='like-filled'>
  <!-- width="20" height="18" viewBox="0 0 20 18" -->
    <path d="M5.38071 0C2.40903 0 0 2.40903 0 5.38071C0 6.80777 0.566893 8.17637 1.57597 9.18545L9.5286 17.1381C9.78895 17.3984 10.2111 17.3984 10.4714 17.1381L18.424 9.18545C19.4331 8.17637 20 6.80777 20 5.38071C20 2.40903 17.591 0 14.6193 0C13.1922 0 11.8236 0.566894 10.8146 1.57597L10 2.39052L9.18545 1.57597C8.17637 0.566895 6.80777 0 5.38071 0Z" fill="currentColor"/>
  </g>
  <g id='reload'>
  <!-- width="18" height="20" viewBox="0 0 18 20" -->
    <path fill-rule="evenodd" clip-rule="evenodd" d="M8.48189 2.49989L6.93396 0.953004L7.88633 0L11.0577 3.16928L7.88634 6.33873L6.93395 5.38576L8.47232 3.84832C4.51244 3.99813 1.3473 7.25498 1.3473 11.2478C1.3473 15.3361 4.66547 18.6527 8.75744 18.6527C12.8494 18.6527 16.1676 15.3361 16.1676 11.2478V10.5742H17.5149V11.2478C17.5149 16.081 13.5927 20 8.75744 20C3.92221 20 0 16.081 0 11.2478C0 6.50682 3.77407 2.64542 8.48189 2.49989Z" fill="currentColor"/>
  </g>
  <g id='upload'>
  <!-- width="16" height="16" viewBox="0 0 16 16" -->
    <path fill-rule="evenodd" clip-rule="evenodd" d="M7.86601 0L12.2355 4.03339L11.4129 4.92452L8.48919 2.22567V12.3618H7.27645V2.30464L4.67336 4.90772L3.81583 4.05019L7.86601 0ZM1.21274 14.7873V7.51081H0V16H15.7656V7.51081H14.5529V14.7873H1.21274Z" fill="currentColor"/>
  </g>
  <g id='prev'>
  <!-- width="7" height="12" viewBox="0 0 7 12" -->
    <path d="M5.99984 12C5.74397 12 5.48797 11.9023 5.29297 11.707L0.292969 6.70703C-0.0976562 6.31641 -0.0976562 5.68359 0.292969 5.29297L5.29297 0.292969C5.68359 -0.0976562 6.31641 -0.0976562 6.70703 0.292969C7.09766 0.683594 7.09766 1.31641 6.70703 1.70703L2.41391 6L6.70766 10.2937C7.09828 10.6844 7.09828 11.3172 6.70766 11.7078C6.51234 11.9031 6.25609 12 5.99984 12Z" fill="currentColor"/>
  </g>
  <g id='next'>
  <!-- width="7" height="12" viewBox="0 0 7 12" -->
    <path d="M1.00016 0C1.25603 0 1.51203 0.0976562 1.70703 0.292969L6.70703 5.29297C7.09766 5.68359 7.09766 6.31641 6.70703 6.70703L1.70703 11.707C1.31641 12.0977 0.683594 12.0977 0.292969 11.707C-0.0976562 11.3164 -0.0976562 10.6836 0.292969 10.293L4.58609 6L0.292344 1.70625C-0.0982809 1.31563 -0.0982809 0.682813 0.292344 0.292188C0.487657 0.0968752 0.743906 0 1.00016 0Z" fill="currentColor"/>
  </g>
  <g id='down'>
  <!-- width="12" height="8" viewBox="0 0 12 8" -->
    <path d="M6.59406 7.17417L11.7538 2.01436C12.0821 1.68616 12.0821 1.15395 11.7538 0.825875C11.4256 0.497795 10.8935 0.497795 10.5655 0.825875L5.99993 5.39154L1.43458 0.826055C1.10635 0.497915 0.574264 0.497915 0.24617 0.826055C-0.0820567 1.15414 -0.0820567 1.68628 0.24617 2.01447L5.40591 7.17431C5.57003 7.33836 5.78492 7.42029 5.9999 7.42029C6.21498 7.42029 6.43002 7.3382 6.59406 7.17417Z" fill="currentColor"/>
  </g>
  <g id='error-close'>
    <svg width="20" height="20" viewBox="0 0 20 20" fill="none" xmlns="http://www.w3.org/2000/svg">
    <g clip-path="url(#clip0_137_2447)">
      <path fill-rule="evenodd" clip-rule="evenodd" d="M0 10C0 4.47715 4.47715 0 10 0C15.5228 0 20 4.47715 20 10C20 15.5228 15.5228 20 10 20C4.47715 20 0 15.5228 0 10ZM10 1.33333C5.21353 1.33333 1.33333 5.21353 1.33333 10C1.33333 14.7865 5.21353 18.6667 10 18.6667C14.7865 18.6667 18.6667 14.7865 18.6667 10C18.6667 5.21353 14.7865 1.33333 10 1.33333ZM9.05719 10L5.5286 6.4714L6.4714 5.5286L10 9.05719L13.5286 5.5286L14.4714 6.4714L10.9428 10L14.4714 13.5286L13.5286 14.4714L10 10.9428L6.4714 14.4714L5.5286 13.5286L9.05719 10Z" fill="currentColor"/>
    </g>
    <defs>
    <clipPath id="clip0_137_2447">
    <rect width="20" height="20" fill="white"/>
    </clipPath>
    </defs>
    </svg>
  </g>

  <g id='success'>
    <svg width="20" height="20" viewBox="0 0 20 20" fill="none" xmlns="http://www.w3.org/2000/svg">
      <g clip-path="url(#clip0_1_1589)">
      <path fill-rule="evenodd" clip-rule="evenodd" d="M0 10C0 4.47715 4.47715 0 10 0C15.5228 0 20 4.47715 20 10C20 15.5228 15.5228 20 10 20C4.47715 20 0 15.5228 0 10ZM10 1.33333C5.21353 1.33333 1.33333 5.21353 1.33333 10C1.33333 14.7865 5.21353 18.6667 10 18.6667C14.7865 18.6667 18.6667 14.7865 18.6667 10C18.6667 5.21353 14.7865 1.33333 10 1.33333ZM15.1872 7.08313L9.42904 14.2809L4.90654 10.5121L5.76012 9.48785L9.23763 12.3858L14.1461 6.2502L15.1872 7.08313Z" fill="currentColor"/>
      </g>
      <defs>
      <clipPath id="clip0_1_1589">
      <rect width="20" height="20" fill="white"/>
      </clipPath>
      </defs>
    </svg>

  </g>
  <g id='logo'>
    <svg width="24" height="24" viewBox="0 0 24 24" fill="none" xmlns="http://www.w3.org/2000/svg">
      <path d="M7.84082 12.4568C7.84082 9.90693 9.9079 7.83984 12.4578 7.83984L19.3832 7.83984C21.9331 7.83984 24.0002 9.90693 24.0002 12.4568C24.0002 15.0067 21.9331 17.0738 19.3832 17.0738H12.4578C9.9079 17.0738 7.84082 15.0067 7.84082 12.4568Z" fill="#FF868E"/>
      <path d="M12.4578 24C9.9079 24 7.84082 21.9329 7.84082 19.383L7.84082 12.4576C7.84082 9.90772 9.9079 7.84063 12.4578 7.84063C15.0077 7.84063 17.0747 9.90772 17.0747 12.4576V19.383C17.0747 21.9329 15.0077 24 12.4578 24Z" fill="#FF868E"/>
      <path d="M11.5427 2.8856C11.5427 4.47927 10.2508 5.7712 8.65709 5.7712C7.06341 5.7712 5.77148 4.47927 5.77148 2.8856C5.77148 1.29193 7.06341 0 8.65709 0C10.2508 0 11.5427 1.29193 11.5427 2.8856Z" fill="#FF868E"/>
      <path d="M5.7712 16.7372C5.7712 18.3308 4.47927 19.6228 2.8856 19.6228C1.29193 19.6228 0 18.3308 0 16.7372C0 15.1435 1.29193 13.8516 2.8856 13.8516C4.47927 13.8516 5.7712 15.1435 5.7712 16.7372Z" fill="#FF868E"/>
      <path d="M19.6218 2.8856C19.6218 4.47927 18.3299 5.7712 16.7362 5.7712C15.1425 5.7712 13.8506 4.47927 13.8506 2.8856C13.8506 1.29193 15.1425 0 16.7362 0C18.3299 0 19.6218 1.29193 19.6218 2.8856Z" fill="#FF868E"/>
      <path d="M5.7712 8.65709C5.7712 10.2508 4.47927 11.5427 2.8856 11.5427C1.29193 11.5427 0 10.2508 0 8.65709C0 7.06341 1.29193 5.77148 2.8856 5.77148C4.47927 5.77148 5.7712 7.06341 5.7712 8.65709Z" fill="#FF868E"/>
    </svg>


  </g>
  <g id='menu'>
    <!-- <svg width="30" height="18" viewBox="0 0 30 18" fill="none" xmlns="http://www.w3.org/2000/svg"> -->
    <path fill-rule="evenodd" clip-rule="evenodd" d="M30 2H0V0H30V2ZM30 10H0V8H30V10ZM30 18H0V16H30V18Z" fill="currentColor"/>
    <!-- </svg> -->
  </g>
  <g id='close'>
    <svg width="18" height="18" viewBox="0 0 18 18" fill="none" xmlns="http://www.w3.org/2000/svg">
    <path fill-rule="evenodd" clip-rule="evenodd" d="M8.05691 9.0007L0.52832 1.47211L1.47113 0.529297L8.99972 8.05789L16.5283 0.529297L17.4711 1.47211L9.94253 9.0007L17.4711 16.5293L16.5283 17.4721L8.99972 9.94351L1.47113 17.4721L0.52832 16.5293L8.05691 9.0007Z" fill="currentColor"/>
  </svg>

  </g>
</svg>
